<svg width="272" height="71" viewBox="0 0 272 71" fill="none" xmlns="http://www.w3.org/2000/svg">
<path d="M92.1913 32.6384C91.1353 32.6384 90.1893 32.4477 89.3533 32.0664C88.5173 31.685 87.8353 31.157 87.3073 30.4824C86.7793 29.8077 86.442 29.0157 86.2953 28.1064L89.4413 27.4684C89.6026 28.275 89.918 28.9057 90.3873 29.3604C90.8566 29.815 91.4286 30.0424 92.1033 30.0424C92.866 30.0424 93.4526 29.881 93.8633 29.5584C94.274 29.221 94.4793 28.7737 94.4793 28.2164C94.4793 27.7617 94.3326 27.395 94.0393 27.1164C93.7606 26.8377 93.3793 26.603 92.8953 26.4124C92.426 26.2217 91.9126 26.053 91.3553 25.9064C90.798 25.745 90.2333 25.569 89.6613 25.3784C89.104 25.173 88.5906 24.909 88.1213 24.5864C87.652 24.2637 87.2706 23.853 86.9773 23.3544C86.6986 22.8557 86.5593 22.2177 86.5593 21.4404C86.5593 20.5017 86.7866 19.7024 87.2413 19.0424C87.696 18.3677 88.3266 17.8544 89.1333 17.5024C89.9546 17.1504 90.9006 16.9744 91.9713 16.9744C92.91 16.9744 93.7606 17.143 94.5233 17.4804C95.3006 17.8177 95.9386 18.287 96.4373 18.8884C96.936 19.475 97.2366 20.1497 97.3393 20.9124L94.2373 21.7044C94.1053 21.015 93.8266 20.4797 93.4013 20.0984C92.9906 19.717 92.4773 19.5264 91.8613 19.5264C91.4653 19.5264 91.0986 19.5924 90.7613 19.7244C90.4386 19.8564 90.182 20.0544 89.9913 20.3184C89.8006 20.5824 89.7053 20.9124 89.7053 21.3084C89.7053 21.7484 89.852 22.1077 90.1453 22.3864C90.4386 22.6504 90.82 22.8777 91.2893 23.0684C91.7586 23.2444 92.272 23.413 92.8293 23.5744C93.4013 23.721 93.966 23.897 94.5233 24.1024C95.0953 24.3077 95.616 24.5717 96.0853 24.8944C96.5693 25.217 96.9506 25.635 97.2293 26.1484C97.5226 26.647 97.6693 27.2777 97.6693 28.0404C97.6693 28.847 97.442 29.6024 96.9873 30.3064C96.5473 31.0104 95.9166 31.575 95.0953 32.0004C94.274 32.4257 93.306 32.6384 92.1913 32.6384ZM100.334 17.1284H103.436V32.4844H100.334V17.1284ZM109.992 17.1284H113.094V32.4844H109.992V17.1284ZM102.996 23.4424H110.542V25.9504H102.996V23.4424ZM123.253 32.6384C122.168 32.6384 121.149 32.4477 120.195 32.0664C119.242 31.685 118.406 31.1424 117.687 30.4384C116.969 29.7344 116.404 28.9057 115.993 27.9524C115.583 26.999 115.377 25.943 115.377 24.7844C115.377 23.6404 115.583 22.5917 115.993 21.6384C116.404 20.685 116.969 19.8637 117.687 19.1744C118.406 18.4704 119.242 17.9277 120.195 17.5464C121.149 17.165 122.168 16.9744 123.253 16.9744C124.339 16.9744 125.358 17.165 126.311 17.5464C127.265 17.9277 128.093 18.4704 128.797 19.1744C129.516 19.8637 130.081 20.685 130.491 21.6384C130.902 22.5917 131.107 23.6404 131.107 24.7844C131.107 25.943 130.902 26.999 130.491 27.9524C130.081 28.9057 129.516 29.7344 128.797 30.4384C128.093 31.1424 127.265 31.685 126.311 32.0664C125.358 32.4477 124.339 32.6384 123.253 32.6384ZM123.231 29.8444C124.17 29.8444 124.984 29.639 125.673 29.2284C126.377 28.8177 126.927 28.231 127.323 27.4684C127.719 26.7057 127.917 25.811 127.917 24.7844C127.917 23.7577 127.719 22.8704 127.323 22.1224C126.927 21.3597 126.377 20.773 125.673 20.3624C124.984 19.9517 124.17 19.7464 123.231 19.7464C122.322 19.7464 121.515 19.9517 120.811 20.3624C120.107 20.773 119.557 21.3597 119.161 22.1224C118.765 22.8704 118.567 23.7577 118.567 24.7844C118.567 25.811 118.765 26.7057 119.161 27.4684C119.557 28.231 120.107 28.8177 120.811 29.2284C121.515 29.639 122.322 29.8444 123.231 29.8444ZM133.399 32.4844V17.1284H139.053C140.3 17.1284 141.334 17.341 142.155 17.7664C142.976 18.177 143.585 18.7417 143.981 19.4604C144.392 20.179 144.597 20.9857 144.597 21.8804C144.597 22.6577 144.406 23.413 144.025 24.1464C143.658 24.865 143.072 25.459 142.265 25.9284C141.458 26.383 140.388 26.6104 139.053 26.6104H136.501V32.4844H133.399ZM136.501 24.1024H138.921C139.786 24.1024 140.417 23.9044 140.813 23.5084C141.224 23.0977 141.429 22.555 141.429 21.8804C141.429 21.1764 141.224 20.6264 140.813 20.2304C140.417 19.8344 139.786 19.6364 138.921 19.6364H136.501V24.1024ZM159.154 32.6384C158.068 32.6384 157.049 32.4477 156.096 32.0664C155.142 31.685 154.306 31.1424 153.588 30.4384C152.869 29.7344 152.304 28.9057 151.894 27.9524C151.483 26.999 151.278 25.943 151.278 24.7844C151.278 23.6404 151.483 22.5917 151.894 21.6384C152.304 20.685 152.869 19.8637 153.588 19.1744C154.306 18.4704 155.142 17.9277 156.096 17.5464C157.049 17.165 158.068 16.9744 159.154 16.9744C160.239 16.9744 161.258 17.165 162.212 17.5464C163.165 17.9277 163.994 18.4704 164.698 19.1744C165.416 19.8637 165.981 20.685 166.392 21.6384C166.802 22.5917 167.008 23.6404 167.008 24.7844C167.008 25.943 166.802 26.999 166.392 27.9524C165.981 28.9057 165.416 29.7344 164.698 30.4384C163.994 31.1424 163.165 31.685 162.212 32.0664C161.258 32.4477 160.239 32.6384 159.154 32.6384ZM159.132 29.8444C160.07 29.8444 160.884 29.639 161.574 29.2284C162.278 28.8177 162.828 28.231 163.224 27.4684C163.62 26.7057 163.818 25.811 163.818 24.7844C163.818 23.7577 163.62 22.8704 163.224 22.1224C162.828 21.3597 162.278 20.773 161.574 20.3624C160.884 19.9517 160.07 19.7464 159.132 19.7464C158.222 19.7464 157.416 19.9517 156.712 20.3624C156.008 20.773 155.458 21.3597 155.062 22.1224C154.666 22.8704 154.468 23.7577 154.468 24.7844C154.468 25.811 154.666 26.7057 155.062 27.4684C155.458 28.231 156.008 28.8177 156.712 29.2284C157.416 29.639 158.222 29.8444 159.132 29.8444ZM182.455 17.1284V32.4844H179.353L172.401 21.9904V32.4844H169.299V17.1284H172.401L179.353 27.6444V17.1284H182.455ZM188.6 17.1284V30.0424H193.66V32.4844H185.498V17.1284H188.6ZM195.464 32.4844V29.9764H197.18V19.6364H195.464V17.1284H201.998V19.6364H200.282V29.9764H201.998V32.4844H195.464ZM218.033 17.1284V32.4844H214.931L207.979 21.9904V32.4844H204.877V17.1284H207.979L214.931 27.6444V17.1284H218.033ZM230.009 19.6364H224.179V23.4644H229.349V25.9064H224.179V29.9764H230.009V32.4844H221.077V17.1284H230.009V19.6364Z" fill="#212121"/>
<path d="M92.2153 45.0284L96.7513 57.4844H95.0053L90.8653 45.9284H91.6573L87.5173 57.4844H85.7893L90.3253 45.0284H92.2153ZM88.0033 53.3624H94.4293L94.8613 54.7124H87.5893L88.0033 53.3624ZM103.815 57.4844V48.9704H102.537V47.6204H103.815V46.9184C103.815 46.3664 103.881 45.8924 104.013 45.4964C104.157 45.0884 104.373 44.7584 104.661 44.5064C104.961 44.2424 105.339 44.0504 105.795 43.9304C106.251 43.7984 106.791 43.7324 107.415 43.7324V45.1184C106.947 45.1184 106.569 45.1784 106.281 45.2984C105.993 45.4184 105.783 45.6104 105.651 45.8744C105.531 46.1264 105.471 46.4744 105.471 46.9184V47.6204H107.523V48.9704H105.471V57.4844H103.815ZM114.041 57.6104C113.273 57.6104 112.565 57.4964 111.917 57.2684C111.281 57.0284 110.729 56.6864 110.261 56.2424C109.793 55.7984 109.433 55.2764 109.181 54.6764C108.929 54.0644 108.803 53.3804 108.803 52.6244C108.803 51.8684 108.941 51.1784 109.217 50.5544C109.505 49.9304 109.889 49.3904 110.369 48.9344C110.861 48.4664 111.419 48.1124 112.043 47.8724C112.679 47.6204 113.339 47.4944 114.023 47.4944C114.635 47.4944 115.193 47.5724 115.697 47.7284C116.201 47.8844 116.633 48.1064 116.993 48.3944C117.353 48.6824 117.635 49.0124 117.839 49.3844C118.043 49.7564 118.145 50.1644 118.145 50.6084C118.145 51.2324 117.971 51.7544 117.623 52.1744C117.275 52.5824 116.813 52.9064 116.237 53.1464C115.661 53.3744 115.025 53.5364 114.329 53.6324C113.645 53.7164 112.955 53.7464 112.259 53.7224C112.067 53.7224 111.857 53.7164 111.629 53.7044C111.401 53.6924 111.191 53.6804 110.999 53.6684C110.807 53.6444 110.651 53.6264 110.531 53.6144C110.603 54.0824 110.795 54.5144 111.107 54.9104C111.419 55.3064 111.827 55.6244 112.331 55.8644C112.847 56.0924 113.417 56.2064 114.041 56.2064C114.521 56.2064 114.977 56.1224 115.409 55.9544C115.853 55.7744 116.243 55.5524 116.579 55.2884C116.927 55.0244 117.209 54.7544 117.425 54.4784L118.649 55.3964C118.337 55.8164 117.947 56.1944 117.479 56.5304C117.011 56.8664 116.489 57.1304 115.913 57.3224C115.337 57.5144 114.713 57.6104 114.041 57.6104ZM112.295 52.3724C112.775 52.3724 113.261 52.3484 113.753 52.3004C114.245 52.2404 114.701 52.1444 115.121 52.0124C115.541 51.8804 115.877 51.7064 116.129 51.4904C116.393 51.2624 116.525 50.9744 116.525 50.6264C116.525 50.2904 116.417 49.9964 116.201 49.7444C115.997 49.4804 115.709 49.2764 115.337 49.1324C114.977 48.9764 114.569 48.8984 114.113 48.8984C113.429 48.8984 112.811 49.0604 112.259 49.3844C111.719 49.6964 111.287 50.1104 110.963 50.6264C110.639 51.1424 110.465 51.6884 110.441 52.2644C110.645 52.3004 110.909 52.3304 111.233 52.3544C111.557 52.3664 111.911 52.3724 112.295 52.3724ZM119.478 47.6204H121.152L123.69 56.9444H123.096L125.85 47.6204H127.542L130.206 56.9444H129.63L132.15 47.6204H133.77L130.692 57.4844H129L126.282 48.5024H126.984L124.266 57.4844H122.556L119.478 47.6204ZM144.389 57.6104C143.453 57.6104 142.619 57.4064 141.887 56.9984C141.167 56.5784 140.603 55.9904 140.195 55.2344C139.787 54.4664 139.583 53.5724 139.583 52.5524C139.583 51.5084 139.787 50.6144 140.195 49.8704C140.603 49.1144 141.167 48.5324 141.887 48.1244C142.619 47.7044 143.453 47.4944 144.389 47.4944C144.941 47.4944 145.451 47.5544 145.919 47.6744C146.387 47.7944 146.807 47.9804 147.179 48.2324C147.551 48.4724 147.869 48.7844 148.133 49.1684C148.409 49.5404 148.625 49.9844 148.781 50.5004L147.233 50.9864C147.005 50.3024 146.651 49.7804 146.171 49.4204C145.703 49.0604 145.109 48.8804 144.389 48.8804C143.789 48.8804 143.249 49.0184 142.769 49.2944C142.301 49.5704 141.929 49.9784 141.653 50.5184C141.389 51.0584 141.257 51.7364 141.257 52.5524C141.257 53.3444 141.389 54.0164 141.653 54.5684C141.929 55.1084 142.301 55.5224 142.769 55.8104C143.249 56.0864 143.789 56.2244 144.389 56.2244C145.217 56.2244 145.883 56.0084 146.387 55.5764C146.891 55.1324 147.233 54.5564 147.413 53.8484L148.943 54.2084C148.775 54.8684 148.487 55.4564 148.079 55.9724C147.683 56.4764 147.179 56.8784 146.567 57.1784C145.955 57.4664 145.229 57.6104 144.389 57.6104ZM151.146 55.4864V44.1644H152.784V55.3424C152.784 55.6184 152.862 55.8284 153.018 55.9724C153.174 56.1164 153.36 56.1884 153.576 56.1884C153.72 56.1884 153.852 56.1644 153.972 56.1164L154.332 57.3404C154.032 57.5204 153.672 57.6104 153.252 57.6104C152.916 57.6104 152.586 57.5444 152.262 57.4124C151.938 57.2684 151.668 57.0404 151.452 56.7284C151.248 56.4044 151.146 55.9904 151.146 55.4864ZM156.281 57.4844V47.6204H157.919V57.4844H156.281ZM157.109 46.0184C156.761 46.0184 156.461 45.9044 156.209 45.6764C155.957 45.4484 155.831 45.1664 155.831 44.8304C155.831 44.4824 155.951 44.1944 156.191 43.9664C156.431 43.7384 156.737 43.6244 157.109 43.6244C157.457 43.6244 157.757 43.7384 158.009 43.9664C158.261 44.1944 158.387 44.4824 158.387 44.8304C158.387 45.1664 158.261 45.4484 158.009 45.6764C157.757 45.9044 157.457 46.0184 157.109 46.0184ZM164.973 57.6104C164.037 57.6104 163.203 57.4064 162.471 56.9984C161.751 56.5784 161.187 55.9904 160.779 55.2344C160.371 54.4664 160.167 53.5724 160.167 52.5524C160.167 51.5084 160.371 50.6144 160.779 49.8704C161.187 49.1144 161.751 48.5324 162.471 48.1244C163.203 47.7044 164.037 47.4944 164.973 47.4944C165.525 47.4944 166.035 47.5544 166.503 47.6744C166.971 47.7944 167.391 47.9804 167.763 48.2324C168.135 48.4724 168.453 48.7844 168.717 49.1684C168.993 49.5404 169.209 49.9844 169.365 50.5004L167.817 50.9864C167.589 50.3024 167.235 49.7804 166.755 49.4204C166.287 49.0604 165.693 48.8804 164.973 48.8804C164.373 48.8804 163.833 49.0184 163.353 49.2944C162.885 49.5704 162.513 49.9784 162.237 50.5184C161.973 51.0584 161.841 51.7364 161.841 52.5524C161.841 53.3444 161.973 54.0164 162.237 54.5684C162.513 55.1084 162.885 55.5224 163.353 55.8104C163.833 56.0864 164.373 56.2244 164.973 56.2244C165.801 56.2244 166.467 56.0084 166.971 55.5764C167.475 55.1324 167.817 54.5564 167.997 53.8484L169.527 54.2084C169.359 54.8684 169.071 55.4564 168.663 55.9724C168.267 56.4764 167.763 56.8784 167.151 57.1784C166.539 57.4664 165.813 57.6104 164.973 57.6104ZM171.73 57.4844V44.1644H173.368V51.8504C174.112 51.7064 174.79 51.4484 175.402 51.0764C176.026 50.7044 176.554 50.2304 176.986 49.6544C177.43 49.0664 177.736 48.3884 177.904 47.6204H179.686C179.518 48.4364 179.206 49.1744 178.75 49.8344C178.306 50.4944 177.79 51.0524 177.202 51.5084C176.614 51.9644 176.026 52.2944 175.438 52.4984C175.87 52.6064 176.326 52.8164 176.806 53.1284C177.298 53.4284 177.766 53.8004 178.21 54.2444C178.666 54.6884 179.056 55.1864 179.38 55.7384C179.716 56.2904 179.932 56.8724 180.028 57.4844H178.264C178.144 56.9564 177.922 56.4524 177.598 55.9724C177.286 55.4804 176.902 55.0424 176.446 54.6584C176.002 54.2744 175.516 53.9624 174.988 53.7224C174.46 53.4824 173.92 53.3384 173.368 53.2904V57.4844H171.73ZM184.958 57.6104C184.238 57.6104 183.602 57.4904 183.05 57.2504C182.51 57.0104 182.066 56.6804 181.718 56.2604C181.382 55.8404 181.154 55.3784 181.034 54.8744L182.582 54.5324C182.702 55.0244 182.966 55.4264 183.374 55.7384C183.782 56.0504 184.304 56.2064 184.939 56.2064C185.6 56.2064 186.098 56.0744 186.434 55.8104C186.782 55.5344 186.956 55.1984 186.956 54.8024C186.956 54.4304 186.812 54.1424 186.524 53.9384C186.248 53.7344 185.888 53.5664 185.444 53.4344C185 53.3024 184.526 53.1704 184.022 53.0384C183.53 52.9064 183.062 52.7384 182.618 52.5344C182.174 52.3184 181.814 52.0304 181.538 51.6704C181.262 51.3104 181.124 50.8304 181.124 50.2304C181.124 49.7144 181.274 49.2524 181.574 48.8444C181.874 48.4364 182.294 48.1124 182.833 47.8724C183.386 47.6204 184.022 47.4944 184.742 47.4944C185.438 47.4944 186.032 47.6084 186.524 47.8364C187.016 48.0524 187.412 48.3524 187.712 48.7364C188.024 49.1084 188.234 49.5404 188.342 50.0324L186.812 50.4464C186.704 50.0024 186.482 49.6304 186.146 49.3304C185.81 49.0304 185.324 48.8804 184.688 48.8804C184.088 48.8804 183.62 49.0064 183.284 49.2584C182.948 49.5104 182.78 49.8284 182.78 50.2124C182.78 50.5964 182.918 50.9024 183.194 51.1304C183.482 51.3464 183.842 51.5204 184.274 51.6524C184.718 51.7844 185.186 51.9164 185.678 52.0484C186.17 52.1804 186.632 52.3484 187.064 52.5524C187.508 52.7564 187.868 53.0384 188.144 53.3984C188.432 53.7464 188.576 54.2084 188.576 54.7844C188.576 55.3124 188.426 55.7924 188.126 56.2244C187.826 56.6444 187.406 56.9804 186.866 57.2324C186.326 57.4844 185.69 57.6104 184.958 57.6104ZM199.668 57.6104C198.816 57.6104 198.036 57.4004 197.328 56.9804C196.632 56.5484 196.074 55.9544 195.654 55.1984C195.246 54.4304 195.042 53.5424 195.042 52.5344C195.042 51.5264 195.246 50.6444 195.654 49.8884C196.074 49.1324 196.632 48.5444 197.328 48.1244C198.036 47.7044 198.816 47.4944 199.668 47.4944C200.544 47.4944 201.312 47.6984 201.972 48.1064C202.632 48.5144 203.106 49.0724 203.394 49.7804V47.6204H205.05V57.4844H204.366C204.066 57.4844 203.826 57.4004 203.646 57.2324C203.478 57.0524 203.394 56.8124 203.394 56.5124V55.2884C203.094 55.9964 202.608 56.5604 201.936 56.9804C201.276 57.4004 200.52 57.6104 199.668 57.6104ZM200.064 56.1704C200.664 56.1704 201.216 56.0264 201.72 55.7384C202.224 55.4504 202.626 55.0364 202.926 54.4964C203.238 53.9444 203.394 53.2904 203.394 52.5344C203.394 51.7664 203.238 51.1184 202.926 50.5904C202.626 50.0504 202.224 49.6364 201.72 49.3484C201.216 49.0604 200.664 48.9164 200.064 48.9164C199.464 48.9164 198.906 49.0604 198.39 49.3484C197.886 49.6364 197.478 50.0504 197.166 50.5904C196.866 51.1184 196.716 51.7664 196.716 52.5344C196.716 53.2904 196.866 53.9444 197.166 54.4964C197.478 55.0364 197.886 55.4504 198.39 55.7384C198.906 56.0264 199.464 56.1704 200.064 56.1704ZM206.666 47.6204H208.34L210.878 56.9444H210.284L213.038 47.6204H214.73L217.394 56.9444H216.818L219.338 47.6204H220.958L217.88 57.4844H216.188L213.47 48.5024H214.172L211.454 57.4844H209.744L206.666 47.6204ZM226.597 57.6104C225.745 57.6104 224.965 57.4004 224.257 56.9804C223.561 56.5484 223.003 55.9544 222.583 55.1984C222.175 54.4304 221.971 53.5424 221.971 52.5344C221.971 51.5264 222.175 50.6444 222.583 49.8884C223.003 49.1324 223.561 48.5444 224.257 48.1244C224.965 47.7044 225.745 47.4944 226.597 47.4944C227.473 47.4944 228.241 47.6984 228.901 48.1064C229.561 48.5144 230.035 49.0724 230.323 49.7804V47.6204H231.979V57.4844H231.295C230.995 57.4844 230.755 57.4004 230.575 57.2324C230.407 57.0524 230.323 56.8124 230.323 56.5124V55.2884C230.023 55.9964 229.537 56.5604 228.865 56.9804C228.205 57.4004 227.449 57.6104 226.597 57.6104ZM226.993 56.1704C227.593 56.1704 228.145 56.0264 228.649 55.7384C229.153 55.4504 229.555 55.0364 229.855 54.4964C230.167 53.9444 230.323 53.2904 230.323 52.5344C230.323 51.7664 230.167 51.1184 229.855 50.5904C229.555 50.0504 229.153 49.6364 228.649 49.3484C228.145 49.0604 227.593 48.9164 226.993 48.9164C226.393 48.9164 225.835 49.0604 225.319 49.3484C224.815 49.6364 224.407 50.0504 224.095 50.5904C223.795 51.1184 223.645 51.7664 223.645 52.5344C223.645 53.2904 223.795 53.9444 224.095 54.4964C224.407 55.0364 224.815 55.4504 225.319 55.7384C225.835 56.0264 226.393 56.1704 226.993 56.1704ZM241.605 57.6464V47.6204H243.261V57.6464C243.261 58.3184 243.159 58.9364 242.955 59.5004C242.751 60.0644 242.445 60.5504 242.037 60.9584C241.641 61.3784 241.155 61.7024 240.579 61.9304C240.015 62.1704 239.367 62.2904 238.635 62.2904C237.891 62.2904 237.213 62.1644 236.601 61.9124C235.989 61.6604 235.461 61.2884 235.017 60.7964C234.585 60.3044 234.243 59.6984 233.991 58.9784L235.503 58.4024C235.791 59.1944 236.211 59.8004 236.763 60.2204C237.315 60.6404 237.933 60.8504 238.617 60.8504C239.541 60.8504 240.267 60.5684 240.795 60.0044C241.335 59.4404 241.605 58.6544 241.605 57.6464ZM242.073 52.8044C242.061 53.7164 241.935 54.4724 241.695 55.0724C241.467 55.6724 241.167 56.1464 240.795 56.4944C240.435 56.8304 240.039 57.0704 239.607 57.2144C239.175 57.3464 238.743 57.4124 238.311 57.4124C237.531 57.4124 236.847 57.2444 236.259 56.9084C235.671 56.5604 235.215 56.0744 234.891 55.4504C234.579 54.8264 234.423 54.0884 234.423 53.2364V47.6204H236.061V52.8404C236.061 53.8364 236.313 54.6104 236.817 55.1624C237.333 55.7024 237.999 55.9724 238.815 55.9724C239.355 55.9724 239.835 55.8284 240.255 55.5404C240.687 55.2524 241.017 54.8564 241.245 54.3524C241.485 53.8364 241.605 53.2364 241.605 52.5524L242.073 52.8044Z" fill="#898A8D"/>
<path d="M43.8436 60.8083L38.5403 32.8776L65.7639 38.888L57.9857 44.5448L66.8245 53.3837L58.3393 61.869L49.5004 53.0301L43.8436 60.8083Z" stroke="#D39926" stroke-width="3.5"/>
<path d="M20.5061 55.8614L29.6985 46.6691M12.3744 35.7089L24.7487 35.3553M20.5061 14.8493L30.4056 24.7487M41.7193 6.36397L41.0122 19.0919" stroke="#D39926" stroke-width="3.5"/>
<path d="M52.3281 24.0389L62.2276 14.1394" stroke="#D39926" stroke-width="3.5"/>
</svg>
